<svg version="1.1" xmlns="http://www.w3.org/2000/svg" viewBox="0 0 1055 89" width="2110" height="178" filter="invert(93%) hue-rotate(180deg)">
  <!-- svg-source:excalidraw -->
  
  <defs>
    <style class="style-fonts">
      @font-face {
        font-family: "Virgil";
        src: url("https://excalidraw.com/Virgil.woff2");
      }
      @font-face {
        font-family: "Cascadia";
        src: url("https://excalidraw.com/Cascadia.woff2");
      }
    </style>
  </defs>
  <g stroke-opacity="0" fill-opacity="0" stroke-linecap="round" transform="translate(10 10) rotate(0 233 34.5)"><path d="M17.86 1.22 L454.52 1.26 L462.82 5.12 L465.62 8.02 L464.8 56.49 L462.75 63.33 L458.94 65.64 L447.28 70.3 L13.64 70.6 L4.69 63.54 L0.18 58.09 L-1.4 18.52 L2.74 8.99 L3.63 4.19 L8.07 1.61 L18.14 1.74" stroke="none" stroke-width="0" fill="#fa5252"></path><path d="M17.25 0 M17.25 0 C141.56 -1.93, 264.56 -1.46, 448.75 0 M17.25 0 C108.36 -0.59, 200.46 -1.01, 448.75 0 M448.75 0 C460.25 -1.68, 464.21 3.99, 466 17.25 M448.75 0 C458.18 1.97, 467.11 4.63, 466 17.25 M466 17.25 C468.17 28.64, 465.27 41.84, 466 51.75 M466 17.25 C465.76 23.5, 466.36 30.9, 466 51.75 M466 51.75 C466.35 65.02, 460.73 68.29, 448.75 69 M466 51.75 C466.47 61.45, 459.72 68.83, 448.75 69 M448.75 69 C297 68.24, 144.44 69.23, 17.25 69 M448.75 69 C353 70.36, 256.78 70.08, 17.25 69 M17.25 69 C7.12 69.53, -0.68 61.36, 0 51.75 M17.25 69 C4.85 68.44, -1.84 63.48, 0 51.75 M0 51.75 C1.81 40.61, -0.48 28.94, 0 17.25 M0 51.75 C-0.25 43.16, -0.79 33.5, 0 17.25 M0 17.25 C-0.79 3.98, 6.67 -0.95, 17.25 0 M0 17.25 C1.59 5.15, 5.01 -1.91, 17.25 0" stroke="#000000" stroke-width="1" fill="none"></path></g><g stroke-opacity="0" fill-opacity="0" stroke-linecap="round" transform="translate(481 10.5) rotate(0 281 34)"><path d="M18.08 -1.5 L549.89 0.97 L557.53 2.54 L558.95 8.79 L560.89 53.51 L559.31 62.38 L554.27 64.95 L543.32 67.61 L11.68 67.07 L3.52 62.35 L1.86 59.24 L-0.33 16.8 L0.65 10.03 L3.25 3.4 L8.21 1.23 L18.02 0.34" stroke="none" stroke-width="0" fill="#40c057"></path><path d="M17 0 M17 0 C224.28 -1.27, 433.17 -1.28, 545 0 M17 0 C221.66 -1.91, 425.94 -2.17, 545 0 M545 0 C555.95 0.57, 560.43 6.78, 562 17 M545 0 C556.33 1.81, 563.41 6.93, 562 17 M562 17 C561.06 26.63, 563.97 31.6, 562 51 M562 17 C562.36 23.29, 563.24 30.61, 562 51 M562 51 C562.13 61.73, 556.08 66.77, 545 68 M562 51 C562.89 62.05, 554.08 68.37, 545 68 M545 68 C369.59 66.9, 192.97 67.06, 17 68 M545 68 C392.09 68.49, 239.52 68.99, 17 68 M17 68 C7.46 68.09, 1.66 62.29, 0 51 M17 68 C5.94 68.86, 2.04 62.04, 0 51 M0 51 C1.55 41.22, 0.32 31.98, 0 17 M0 51 C0.46 43.17, -0.14 37.12, 0 17 M0 17 C1.28 5.68, 4.06 -0.74, 17 0 M0 17 C0.75 7.76, 7.08 0.97, 17 0" stroke="#000000" stroke-width="1" fill="none"></path></g><g transform="translate(23 20) rotate(0 507.5 22)"><text x="0" y="35" font-family="Cascadia, Segoe UI Emoji" font-size="36px" fill="#000000" text-anchor="start" style="white-space: pre;" direction="ltr">IO (Either QueryError (Id Domain.Questionnaire))</text></g><g stroke-opacity="0.3" fill-opacity="0.3" stroke-linecap="round" transform="translate(11 10) rotate(0 33.5 33.5)"><path d="M18.59 0.79 L54.78 0.78 L60.68 3.16 L66.31 8.07 L65.37 16.55 L67.49 55.72 L65.37 61.36 L60.62 64.46 L49.71 66.47 L14.8 66.58 L5.09 63.78 L2.35 61.82 L1.65 50.02 L0.85 9.8 L6.77 3.84 L15.45 1.13" stroke="none" stroke-width="0" fill="#fa5252"></path><path d="M16.75 0 M16.75 0 C29.37 0.01, 43.64 1.5, 50.25 0 M16.75 0 C23.29 0.34, 31.1 -0.5, 50.25 0 M50.25 0 C60.24 -0.79, 67.08 5.64, 67 16.75 M50.25 0 C61.64 1.27, 69 6.53, 67 16.75 M67 16.75 C65.43 25.38, 67.19 34.71, 67 50.25 M67 16.75 C66.92 26.31, 67.9 33.69, 67 50.25 M67 50.25 C66.12 61.09, 62.21 68.22, 50.25 67 M67 50.25 C66.41 62.35, 62.71 67.98, 50.25 67 M50.25 67 C39.01 67.34, 27 65.17, 16.75 67 M50.25 67 C39.14 66.26, 28.67 67.06, 16.75 67 M16.75 67 C5.37 68.5, 0.37 61.68, 0 50.25 M16.75 67 C4.72 66.49, -2.08 62.79, 0 50.25 M0 50.25 C-0.15 37.62, 0.62 24.21, 0 16.75 M0 50.25 C-0.91 36.79, 0.12 22.61, 0 16.75 M0 16.75 C1.81 4.63, 7.07 -0.92, 16.75 0 M0 16.75 C1.58 7.04, 5.06 -1.89, 16.75 0" stroke="#000000" stroke-width="1" fill="none"></path></g><g stroke-opacity="0.3" fill-opacity="0.3" stroke-linecap="round" transform="translate(80 10.5) rotate(0 482.5 34)"><path d="M15.04 -1.2 L946.44 0.08 L958.72 1.69 L965.82 10.51 L964.83 52 L965.25 57.83 L959.94 64.33 L955.03 68.91 L949.43 66.49 L16.85 67.01 L11.36 65.86 L5.7 64.32 L0.85 60.25 L0.03 51.47 L0.22 8.41 L6.08 2.66 L16.89 1.49" stroke="none" stroke-width="0" fill="#40c057"></path><path d="M17 0 M17 0 C287.75 3.88, 558.02 2.75, 948 0 M17 0 C298.55 2.18, 580.82 2.07, 948 0 M948 0 C960.52 0.05, 963.07 4.82, 965 17 M948 0 C961.01 1.75, 967.07 7.13, 965 17 M965 17 C964.26 27.26, 966.14 38.44, 965 51 M965 17 C964.37 28.79, 964.77 40.23, 965 51 M965 51 C963.08 61.19, 959.72 69.86, 948 68 M965 51 C966.97 64.04, 958.66 69.91, 948 68 M948 68 C662.76 66.82, 376.31 66.31, 17 68 M948 68 C685.98 71.35, 424.62 71.35, 17 68 M17 68 C7.12 67.43, -0.08 63.56, 0 51 M17 68 C5.15 67.53, 0.14 63.26, 0 51 M0 51 C1.46 37.66, 0.14 27.48, 0 17 M0 51 C-0.7 38.71, 0.6 27.21, 0 17 M0 17 C1.07 5.21, 6.64 -0.78, 17 0 M0 17 C0.37 5.13, 6.61 1.83, 17 0" stroke="#000000" stroke-width="1" fill="none"></path></g></svg>